<!-- IBM_SOURCE_PROLOG_BEGIN_TAG                                            -->
<!-- *****************************************************************      -->
<!--                                                                        -->
<!-- IBM Confidential                                                       -->
<!-- OCO Source Materials                                                   -->
<!--                                                                        -->
<!-- (C) Copyright IBM Corp. 2019                                           -->
<!--                                                                        -->
<!-- The source code for this program is not published or otherwise         -->
<!-- divested of its trade secrets, irrespective of what has been           -->
<!-- deposited with the U.S. Copyright Office.                              -->
<!--                                                                        -->
<!-- *****************************************************************      -->
<!-- IBM_SOURCE_PROLOG_END_TAG                                              -->
<?xml version="1.0" encoding="UTF-8"?>
<svg width="16px" height="16px" viewBox="0 0 16 16" version="1.1" xmlns="http://www.w3.org/2000/svg" xmlns:xlink="http://www.w3.org/1999/xlink">
    <!-- Generator: Sketch 54.1 (76490) - https://sketchapp.com -->
    <title>action-detection_16</title>
    <desc>Created with Sketch.</desc>
    <g id="action-detection_16" stroke="none" stroke-width="1" fill="none" fill-rule="evenodd">
        <path d="M3,5 L2,5 L2,2.925 C2,2.41413661 2.41413661,2 2.925,2 L5,2 L5,3 L3,3 L3,5 Z M3,11 L3,13 L5,13 L5,14 L2.925,14 C2.67967475,14 2.44439738,13.9025449 2.27092623,13.7290738 C2.09745508,13.5556026 2,13.3203253 2,13.075 L2,11 L3,11 Z M14,5 L13,5 L13,3 L11,3 L11,2 L13.075,2 C13.5858634,2 14,2.41413661 14,2.925 L14,5 Z M14,11 L14,13.075 C14,13.3203253 13.9025449,13.5556026 13.7290738,13.7290738 C13.5556026,13.9025449 13.3203253,14 13.075,14 L11,14 L11,13 L13,13 L13,11 L14,11 Z" id="Bounds" fill="#FFFFFF"></path>
        <path d="M6.56435983,8.43603636 C6.38299361,8.47788459 6.19407947,8.5 6,8.5 C4.61928813,8.5 3.5,7.38071187 3.5,6 C3.5,4.61928813 4.61928813,3.5 6,3.5 C7.38071187,3.5 8.5,4.61928813 8.5,6 C8.5,6.19407947 8.47788459,6.38299361 8.43603636,6.56435983 C8.29805257,6.52250585 8.15165455,6.5 8,6.5 C7.7688211,6.5 7.54985694,6.5522975 7.35429291,6.64570709 C7.4477025,6.45014306 7.5,6.2311789 7.5,6 C7.5,5.17157288 6.82842712,4.5 6,4.5 C5.17157288,4.5 4.5,5.17157288 4.5,6 C4.5,6.82842712 5.17157288,7.5 6,7.5 C6.2311789,7.5 6.45014306,7.4477025 6.64570709,7.35429291 C6.5522975,7.54985694 6.5,7.7688211 6.5,8 C6.5,8.15165455 6.52250585,8.29805257 6.56435983,8.43603636 Z" id="3" fill="#FFFFFF" fill-rule="nonzero"></path>
        <path d="M8,10.5 C9.38071187,10.5 10.5,9.38071187 10.5,8 C10.5,6.61928813 9.38071187,5.5 8,5.5 C6.61928813,5.5 5.5,6.61928813 5.5,8 C5.5,9.38071187 6.61928813,10.5 8,10.5 Z M8,9.5 C7.17157288,9.5 6.5,8.82842712 6.5,8 C6.5,7.17157288 7.17157288,6.5 8,6.5 C8.82842712,6.5 9.5,7.17157288 9.5,8 C9.5,8.82842712 8.82842712,9.5 8,9.5 Z" id="2" fill="#FFFFFF" fill-rule="nonzero"></path>
        <path d="M10,12.5 C11.3807119,12.5 12.5,11.3807119 12.5,10 C12.5,8.61928813 11.3807119,7.5 10,7.5 C8.61928813,7.5 7.5,8.61928813 7.5,10 C7.5,11.3807119 8.61928813,12.5 10,12.5 Z" id="1" fill="#FFFFFF" fill-rule="nonzero"></path>
    </g>
</svg>