<!-- IBM_SOURCE_PROLOG_BEGIN_TAG                                            -->
<!-- *****************************************************************      -->
<!--                                                                        -->
<!-- IBM Confidential                                                       -->
<!-- OCO Source Materials                                                   -->
<!--                                                                        -->
<!-- (C) Copyright IBM Corp. 2018                                           -->
<!--                                                                        -->
<!-- The source code for this program is not published or otherwise         -->
<!-- divested of its trade secrets, irrespective of what has been           -->
<!-- deposited with the U.S. Copyright Office.                              -->
<!--                                                                        -->
<!-- *****************************************************************      -->
<!-- IBM_SOURCE_PROLOG_END_TAG                                              -->
<?xml version="1.0" encoding="UTF-8"?>
<svg width="21px" height="22px" viewBox="0 0 21 22" version="1.1" xmlns="http://www.w3.org/2000/svg" xmlns:xlink="http://www.w3.org/1999/xlink">
    <!-- Generator: Sketch 51 (57462) - http://www.bohemiancoding.com/sketch -->
    <title>Artboard</title>
    <desc>Created with Sketch.</desc>
    <defs></defs>
    <g id="Artboard" stroke="none" stroke-width="1">
        <g id="augmented-02-copy-6" transform="translate(1.000000, 1.000000)">
            <path d="M6.4575,13.1137255 C5.94118882,11.7189738 5.21103561,10.4205625 4.29545455,9.26901961 C3.13074346,8.26299163 1.78829298,7.50365212 0.343636364,7.03372549 C1.82336102,6.79513071 3.20011418,6.09945419 4.29545455,5.03686275 C5.28028853,3.71617047 5.98319259,2.19208139 6.35727273,0.56627451 C6.77676526,2.19173395 7.50726939,3.71231026 8.505,5.03686275 C9.64390996,5.99579654 10.9906864,6.65059922 12.4281818,6.94431373 C11.0422286,7.51657473 9.74825592,8.30551753 8.59090909,9.28392157 C7.68085015,10.4287163 6.95989476,11.7229443 6.4575,13.1137255 Z" id="Shape"></path>
            <path d="M11.3911364,18.7466667 C11.168455,18.1131833 10.8440753,17.5236339 10.4318182,17.0031373 C9.90205155,16.5507795 9.29475857,16.2069425 8.64204545,15.9898039 C9.31337228,15.8826031 9.93754322,15.5655888 10.4318182,15.0807843 C10.8781744,14.4769914 11.195479,13.7809435 11.3625,13.0392157 C11.5511751,13.7857559 11.882296,14.4851345 12.3361364,15.0956863 C12.8602081,15.5244239 13.4729625,15.8203341 14.1259091,15.96 C13.4851516,16.2151553 12.8862336,16.572066 12.3504545,17.0180392 C11.9417881,17.5356146 11.6176904,18.119617 11.3911364,18.7466667 Z" id="Shape"></path>
            <path d="M16.0084388,12 C15.8409542,11.553387 15.6015023,11.1371967 15.2995781,10.7679325 C14.9140414,10.4531748 14.473367,10.212807 14,10.0590717 C14.4867026,9.98819421 14.9401338,9.77031166 15.2995781,9.43459916 C15.6248225,9.01030633 15.8550585,8.52105491 15.9746835,8 C16.1208158,8.52091706 16.3673498,9.0082517 16.7004219,9.43459916 C17.0759603,9.74266585 17.5227971,9.95157654 18,10.0421941 C17.5309473,10.2209037 17.0925216,10.4714327 16.7004219,10.7848101 C16.4027146,11.1478362 16.1687355,11.5587262 16.0084388,12 Z" id="Shape"></path>
        </g>
    </g>
</svg>