<!-- IBM_SOURCE_PROLOG_BEGIN_TAG                                            -->
<!-- *****************************************************************      -->
<!--                                                                        -->
<!-- IBM Confidential                                                       -->
<!-- OCO Source Materials                                                   -->
<!--                                                                        -->
<!-- (C) Copyright IBM Corp. 2019                                           -->
<!--                                                                        -->
<!-- The source code for this program is not published or otherwise         -->
<!-- divested of its trade secrets, irrespective of what has been           -->
<!-- deposited with the U.S. Copyright Office.                              -->
<!--                                                                        -->
<!-- *****************************************************************      -->
<!-- IBM_SOURCE_PROLOG_END_TAG                                              -->
<svg xmlns="http://www.w3.org/2000/svg" width="16" height="16" viewBox="0 0 16 16">
  <path fill-rule="evenodd" d="M6.28327544,2 C6.59927544,2 6.87127544,2.217 6.93327544,2.52 L6.93327544,2.52 L7.09827544,3.331 C7.24927544,3.403 7.39427544,3.485 7.53227544,3.576 L7.53227544,3.576 L8.33627544,3.312 C8.40627544,3.289 8.47827544,3.278 8.54927544,3.278 C8.77927544,3.278 9.00027544,3.396 9.12127544,3.599 L9.12127544,3.599 L9.90327544,4.889 C10.0702754,5.154 10.0172754,5.5 9.77727544,5.707 L9.77727544,5.707 L9.14127544,6.252 L9.14127544,6.745 L9.42627544,7 L15.0002754,7 L13.3692754,10.5 L15.0002754,14 L6.00027544,14 C5.44827544,14 5.00027544,13.553 5.00027544,13 L5.00027544,13 L5.00027544,11 L4.71527544,11 C4.39927544,11 4.12727544,10.783 4.06527544,10.48 L4.06527544,10.48 L3.89927544,9.669 C3.75027544,9.597 3.60427544,9.515 3.46627544,9.424 L3.46627544,9.424 L2.66127544,9.687 C2.59127544,9.711 2.52027544,9.722 2.44927544,9.722 C2.21927544,9.722 1.99827544,9.604 1.87627544,9.401 L1.87627544,9.401 L1.09527544,8.111 C0.928275436,7.842 0.985275436,7.495 1.23127544,7.29 L1.23127544,7.29 L1.85627544,6.748 L1.85627544,6.255 L1.23127544,5.694 C0.994275436,5.491 0.937275436,5.154 1.09527544,4.889 L1.09527544,4.889 L1.87627544,3.599 C1.99527544,3.389 2.22127544,3.265 2.45727544,3.265 C2.52527544,3.265 2.59427544,3.274 2.66127544,3.296 L2.66127544,3.296 L3.44927544,3.573 C3.59027544,3.482 3.73727544,3.402 3.89027544,3.331 L3.89027544,3.331 L4.05527544,2.52 C4.11727544,2.217 4.38927544,2 4.70527544,2 L4.70527544,2 Z M13.3752754,8 L9.94427544,8 C9.93127544,8.037 9.92427544,8.076 9.90327544,8.111 L9.90327544,8.111 L9.12127544,9.401 C9.00027544,9.602 8.78127544,9.719 8.55127544,9.719 C8.48727544,9.719 8.42327544,9.71 8.36027544,9.691 L8.36027544,9.691 L7.55927544,9.427 C7.41727544,9.518 7.27127544,9.598 7.11827544,9.669 L7.11827544,9.669 L6.95327544,10.48 C6.89127544,10.783 6.61927544,11 6.30327544,11 L6.30327544,11 L6.00027544,11 L6.00027544,13 L13.3752754,13 L12.2422754,10.5 L13.3752754,8 Z M6.01027544,3 L4.97827544,3 L4.87027544,3.531 L4.76927544,4.026 L4.31027544,4.239 C4.20027544,4.29 4.09227544,4.35 3.98927544,4.415 L3.98927544,4.415 L3.57827544,4.679 L3.11827544,4.517 L2.60027544,4.334 L2.11127544,5.141 L2.52427544,5.51 L2.85627544,5.809 L2.85627544,7.205 L2.51127544,7.504 L2.10827544,7.854 L2.59527544,8.657 L3.15427544,8.474 L3.61327544,8.322 L4.01627544,8.589 C4.11627544,8.654 4.22227544,8.715 4.33127544,8.767 L4.33127544,8.767 L4.78027544,8.981 L4.87927544,9.469 L4.98827544,10 L6.03027544,10 L6.13827544,9.469 L6.23927544,8.974 L6.69827544,8.761 C6.80927544,8.71 6.91727544,8.65 7.01827544,8.586 L7.01827544,8.586 L7.41927544,8.328 L7.87227544,8.478 L8.40527544,8.653 L8.88627544,7.859 L8.47427544,7.489 L8.14127544,7.191 L8.14127544,5.792 L8.49027544,5.492 L8.89227544,5.148 L8.40327544,4.343 L7.84427544,4.526 L7.38527544,4.678 L6.98227544,4.412 C6.88127544,4.346 6.77527544,4.285 6.66727544,4.233 L6.66727544,4.233 L6.21827544,4.019 L6.11827544,3.531 L6.01027544,3 Z M5.50027544,4.75 C6.46527544,4.75 7.25027544,5.535 7.25027544,6.5 C7.25027544,7.465 6.46527544,8.25 5.50027544,8.25 C4.53527544,8.25 3.75027544,7.465 3.75027544,6.5 C3.75027544,5.535 4.53527544,4.75 5.50027544,4.75 Z M5.50027544,5.75 C5.08627544,5.75 4.75027544,6.086 4.75027544,6.5 C4.75027544,6.914 5.08627544,7.25 5.50027544,7.25 C5.91427544,7.25 6.25027544,6.914 6.25027544,6.5 C6.25027544,6.086 5.91427544,5.75 5.50027544,5.75 Z"/>
</svg>
