<!-- IBM_SOURCE_PROLOG_BEGIN_TAG                                            -->
<!-- *****************************************************************      -->
<!--                                                                        -->
<!-- IBM Confidential                                                       -->
<!-- OCO Source Materials                                                   -->
<!--                                                                        -->
<!-- (C) Copyright IBM Corp. 2018                                           -->
<!--                                                                        -->
<!-- The source code for this program is not published or otherwise         -->
<!-- divested of its trade secrets, irrespective of what has been           -->
<!-- deposited with the U.S. Copyright Office.                              -->
<!--                                                                        -->
<!-- *****************************************************************      -->
<!-- IBM_SOURCE_PROLOG_END_TAG                                              -->
<svg xmlns="http://www.w3.org/2000/svg" xmlns:xlink="http://www.w3.org/1999/xlink" viewBox="0 0 216 216"><defs><style>.cls-1{isolation:isolate;}.cls-2{fill:#ffead9;}.cls-3{fill:#ff9efd;}.cls-4{font-size:12px;}.cls-4,.cls-8{fill:#231f20;}.cls-15,.cls-4{font-family:IBMPlexSans-Bold, IBM Plex Sans;font-weight:700;}.cls-5{letter-spacing:-0.01em;}.cls-6{letter-spacing:0em;}.cls-7{letter-spacing:-0.01em;}.cls-9{fill:#00adee;}.cls-10{fill:#252e6a;}.cls-11{fill:url(#New_Gradient_Swatch);}.cls-12{fill:#d1d7f4;opacity:0.6;mix-blend-mode:overlay;}.cls-13,.cls-14{fill:none;stroke-miterlimit:10;}.cls-13{stroke:#ff9efd;}.cls-14{stroke:#ffead9;}.cls-15{font-size:5px;fill:#3c6df0;}.cls-16{letter-spacing:0em;}</style><linearGradient id="New_Gradient_Swatch" x1="94.92" y1="106.83" x2="89.12" y2="132.52" gradientTransform="translate(-17.81 32.69) rotate(-10.88)" gradientUnits="userSpaceOnUse"><stop offset="0" stop-color="#3c6df0"/><stop offset="1"/></linearGradient></defs><title>DashboardIllustration</title><g class="cls-1"><g id="Layer_1" data-name="Layer 1"><path class="cls-2" d="M154.48,106.7a47.82,47.82,0,0,1-14.87,34.71,47.08,47.08,0,0,1-8.59,6.52c-1.2.72-2.44,1.39-3.71,2a46.61,46.61,0,0,1-6.77,2.65c-.39.13-.78.24-1.18.35a47.83,47.83,0,0,1-11.31,1.71c-.51,0-1,0-1.54,0a45.41,45.41,0,0,1-4.83-.25q-1.79-.16-3.54-.48a47.81,47.81,0,0,1-14.48-5.05l0,0c-.38-.21-.76-.42-1.13-.64A48.06,48.06,0,0,1,68.5,136c-.41-.52-.8-1.06-1.18-1.6a48,48,0,0,1,4.46-60.72A47.12,47.12,0,0,1,78.15,68,47.69,47.69,0,0,1,101.68,59a48.21,48.21,0,0,1,4.83-.24c.52,0,1,0,1.54,0a48,48,0,0,1,46.43,47.93Z"/><path class="cls-3" d="M121.05,137v15.6c-.39.13-.78.24-1.18.35V137a.6.6,0,0,1,.59-.59A.59.59,0,0,1,121.05,137Z"/><rect class="cls-3" x="109.66" y="65.57" width="31.39" height="1.18" rx="0.59" ry="0.59" transform="translate(191.51 -59.19) rotate(90)"/><path class="cls-3" d="M84.17,127.93v21l0,0c-.38-.21-.76-.42-1.13-.64V127.93a.59.59,0,0,1,.59-.59A.6.6,0,0,1,84.17,127.93Z"/><path class="cls-3" d="M69,136V113.12a.6.6,0,0,0-.59-.59.59.59,0,0,0-.59.59v21.23Z"/><rect class="cls-3" x="71.36" y="84.13" width="31.39" height="1.18" rx="0.59" ry="0.59" transform="translate(171.77 -2.34) rotate(90)"/><rect class="cls-3" x="86.42" y="64.66" width="21.39" height="1.18" rx="0.59" ry="0.59" transform="translate(162.37 -31.86) rotate(90)"/><text class="cls-4" transform="translate(68.16 190.02)"><tspan class="cls-5">P</tspan><tspan class="cls-6" x="7.75" y="0">r</tspan><tspan x="12.54" y="0">epa</tspan><tspan class="cls-6" x="33.41" y="0">r</tspan><tspan x="38.2" y="0">e D</tspan><tspan class="cls-7" x="56.14" y="0">a</tspan><tspan x="62.89" y="0">ta</tspan></text><rect class="cls-8" x="74.49" y="77.66" width="64.05" height="78.03" transform="translate(-0.4 0.37) rotate(-0.2)"/><rect class="cls-9" x="79.51" y="83.25" width="53.62" height="48.99" transform="matrix(1, 0, 0, 1, -0.37, 0.37)"/><polygon class="cls-10" points="112.89 132.2 92.5 132.27 102.64 114.57 112.77 96.87 123.03 114.5 133.29 132.13 112.89 132.2"/><polygon class="cls-11" points="95.16 132.26 79.53 132.31 87.3 118.75 95.07 105.19 102.93 118.7 110.79 132.21 95.16 132.26"/><circle class="cls-2" cx="123.1" cy="92.08" r="4.19"/><polygon class="cls-12" points="138.59 155.58 74.62 155.8 74.43 77.77 138.59 155.58"/><circle class="cls-13" cx="66.26" cy="75.18" r="2.15"/><circle class="cls-13" cx="159.88" cy="94.32" r="2.15"/><circle class="cls-13" cx="129.48" cy="54.56" r="2.15"/><rect class="cls-14" x="81.18" y="84.72" width="50.28" height="45.52"/><rect class="cls-2" x="79.42" y="83.34" width="2.13" height="2.13"/><rect class="cls-2" x="130.92" y="83.17" width="2.13" height="2.13"/><rect class="cls-2" x="79.5" y="130.23" width="2.13" height="2.13"/><rect class="cls-2" x="131.17" y="130.06" width="2.13" height="2.13"/><rect class="cls-2" x="81.55" y="85.07" width="30.17" height="5.63"/><text class="cls-15" transform="translate(83.04 89.17)"><tspan class="cls-16">L</tspan><tspan x="2.67" y="0">andscape</tspan></text></g></g></svg>