<!-- IBM_SOURCE_PROLOG_BEGIN_TAG                                            -->
<!-- *****************************************************************      -->
<!--                                                                        -->
<!-- IBM Confidential                                                       -->
<!-- OCO Source Materials                                                   -->
<!--                                                                        -->
<!-- (C) Copyright IBM Corp. 2018                                           -->
<!--                                                                        -->
<!-- The source code for this program is not published or otherwise         -->
<!-- divested of its trade secrets, irrespective of what has been           -->
<!-- deposited with the U.S. Copyright Office.                              -->
<!--                                                                        -->
<!-- *****************************************************************      -->
<!-- IBM_SOURCE_PROLOG_END_TAG                                              -->
<svg xmlns="http://www.w3.org/2000/svg" viewBox="0 0 216 216"><defs><style>.cls-1{isolation:isolate;}.cls-2{fill:#ffead9;}.cls-3{fill:#3c6df0;}.cls-4{fill:#6bd8f9;}.cls-5{fill:#00adee;}.cls-6{fill:#ff9efd;}.cls-7{font-size:12px;font-family:IBMPlexSans-Bold, IBM Plex Sans;font-weight:700;}.cls-10,.cls-7{fill:#231f20;}.cls-8{letter-spacing:-0.01em;}.cls-9{fill:none;stroke:#ff9efd;stroke-miterlimit:10;}.cls-11{fill:#d1d7f4;opacity:0.6;mix-blend-mode:overlay;}</style></defs><title>DashboardIllustration</title><g class="cls-1"><g id="Layer_1" data-name="Layer 1"><path class="cls-2" d="M154.81,106.7a47.82,47.82,0,0,1-14.87,34.71,47.08,47.08,0,0,1-8.59,6.52c-1.2.72-2.44,1.39-3.71,2a46.61,46.61,0,0,1-6.77,2.65c-.39.13-.78.24-1.18.35a47.83,47.83,0,0,1-11.31,1.71c-.51,0-1,0-1.54,0a45.41,45.41,0,0,1-4.83-.25q-1.79-.16-3.54-.48A47.81,47.81,0,0,1,84,148.89l0,0c-.38-.21-.76-.42-1.13-.64a48.06,48.06,0,0,1-14-12.27c-.41-.52-.8-1.06-1.18-1.6a48,48,0,0,1,4.46-60.72A47.12,47.12,0,0,1,78.48,68,47.69,47.69,0,0,1,102,59a48.21,48.21,0,0,1,4.83-.24c.52,0,1,0,1.54,0a48,48,0,0,1,46.43,47.93Z"/><rect class="cls-3" x="78.2" y="131.4" width="6.37" height="31.86"/><rect class="cls-4" x="129.12" y="131.4" width="6.37" height="31.86"/><rect class="cls-5" x="84.57" y="131.4" width="6.37" height="31.86"/><rect class="cls-3" x="97.3" y="131.4" width="6.37" height="31.86"/><rect class="cls-4" x="90.94" y="131.4" width="6.37" height="31.86"/><rect class="cls-5" x="103.67" y="131.4" width="6.37" height="31.86"/><rect class="cls-4" x="110.04" y="131.4" width="6.37" height="31.86"/><rect class="cls-5" x="122.75" y="131.4" width="6.37" height="31.86"/><rect class="cls-3" x="116.4" y="131.4" width="6.37" height="31.86"/><path class="cls-5" d="M76.59,57.13v85.78a3.76,3.76,0,0,1-.23,1.31,49.65,49.65,0,0,1-6.14-6.08v-81a3.41,3.41,0,0,1,3.19-3.57,3,3,0,0,1,2.25,1A3.8,3.8,0,0,1,76.59,57.13Z"/><path class="cls-5" d="M75.66,59.63l-13.4,15a3,3,0,0,1-4.5,0h0a3.87,3.87,0,0,1,0-5l13.4-15a3,3,0,0,1,4.5,0h0A3.87,3.87,0,0,1,75.66,59.63Z"/><path class="cls-5" d="M75.65,54.6l13.4,15a3.87,3.87,0,0,1,0,5h0a3,3,0,0,1-4.5,0l-13.4-15a3.87,3.87,0,0,1,0-5h0A3,3,0,0,1,75.65,54.6Z"/><path class="cls-6" d="M143.07,72.16,129.68,87.62a2.91,2.91,0,0,1-4.51,0h0a4.1,4.1,0,0,1,0-5.2L138.57,67a2.9,2.9,0,0,1,4.5,0h0A4.09,4.09,0,0,1,143.07,72.16Z"/><path class="cls-6" d="M143.07,67l13.39,15.45a4.1,4.1,0,0,1,0,5.2h0a2.9,2.9,0,0,1-4.5,0l-13.4-15.46a4.09,4.09,0,0,1,0-5.19h0A2.91,2.91,0,0,1,143.07,67Z"/><path class="cls-6" d="M144,69.58v66.84a47.68,47.68,0,0,1-6.37,7.44V69.58a3.47,3.47,0,0,1,3.18-3.69A3,3,0,0,1,143.07,67,3.94,3.94,0,0,1,144,69.58Z"/><rect class="cls-6" x="127.89" y="112.73" width="38.06" height="1.18" rx="0.59" ry="0.59" transform="translate(260.24 -33.6) rotate(90)"/><rect class="cls-6" x="63.44" y="91.58" width="38.06" height="1.18" rx="0.59" ry="0.59" transform="translate(174.64 9.7) rotate(90)"/><rect class="cls-6" x="108.23" y="62" width="31.39" height="1.18" rx="0.59" ry="0.59" transform="translate(186.51 -61.33) rotate(90)"/><path class="cls-6" d="M69,136V113.12a.6.6,0,0,0-.59-.59.59.59,0,0,0-.59.59v21.23Z"/><rect class="cls-6" x="86.42" y="64.66" width="21.39" height="1.18" rx="0.59" ry="0.59" transform="translate(162.37 -31.86) rotate(90)"/><text class="cls-7" transform="translate(69.22 190.02)">Depl<tspan class="cls-8" x="26.04" y="0">o</tspan><tspan x="32.69" y="0">y Model</tspan></text><circle class="cls-9" cx="66.26" cy="75.18" r="2.15"/><circle class="cls-9" cx="159.88" cy="94.32" r="2.15"/><circle class="cls-9" cx="129.48" cy="54.56" r="2.15"/><circle class="cls-9" cx="137.48" cy="106.16" r="2.15"/><rect class="cls-2" x="131.17" y="130.06" width="2.13" height="2.13"/><path class="cls-10" d="M90.35,130.58l-11.08-.23s2-6.21,3.48-7.57C84.67,121,93,117.9,93,117.9L96,124.83l5.42,6Z"/><path class="cls-10" d="M103.91,132,77.8,131.4l.44-1.38c.35-1.08,2.17-6.55,3.78-8,2-1.86,9.69-4.76,10.56-5.09l1-.35,3.4,7.69ZM80.76,129.3l18.19.39-3.85-4.27-2.71-6.14c-2.7,1-7.63,3.11-8.91,4.29C82.75,124.24,81.59,127,80.76,129.3Z"/><path class="cls-10" d="M123.38,131.29l11.09.22s-1.74-6.28-3.17-7.71c-1.84-1.85-10-5.29-10-5.29L118,125.3l-5.66,5.76Z"/><path class="cls-10" d="M135.89,132.62l-26.11-.54,7.29-7.41,3.72-7.55.94.39c.85.36,8.4,3.59,10.34,5.53,1.54,1.55,3.13,7.09,3.44,8.19ZM114.82,130l18.19.37c-.73-2.35-1.77-5.14-2.47-5.84-1.23-1.23-6.07-3.49-8.72-4.66l-3,6Z"/><polyline class="cls-10" points="115.44 108.45 123.18 135.55 106.56 135.2 89.95 134.85 98.82 108.1"/><polygon class="cls-10" points="124.62 136.66 88.46 135.9 97.8 107.76 99.84 108.44 91.43 133.8 121.74 134.44 114.4 108.75 116.47 108.15 124.62 136.66"/><path class="cls-10" d="M121.1,90.56,112.66,63c-1.75-5.73-6.84-5.81-8.81-.14l-9.64,27.8a52.29,52.29,0,0,0-.45,32l26.43.55A51.66,51.66,0,0,0,121.1,90.56Z"/><path class="cls-10" d="M120.93,124.25l-28-.58-.23-.73a53.68,53.68,0,0,1,.46-32.67l9.64-27.79c1.07-3.09,3.11-4.93,5.45-4.93h.09c2.37,0,4.36,2,5.33,5.11l8.44,27.59a53.13,53.13,0,0,1-.94,33.28Zm-26.37-2.7,24.88.51a51,51,0,0,0,.63-31.18l-8.44-27.59c-.66-2.19-1.93-3.56-3.3-3.58h0c-1.37,0-2.68,1.33-3.42,3.48L95.23,91A51.5,51.5,0,0,0,94.56,121.55Z"/><circle class="cls-5" cx="107.67" cy="87.42" r="3.09"/><circle class="cls-5" cx="107.33" cy="104" r="6.03"/><path class="cls-11" d="M109.86,89.6a3.09,3.09,0,0,1-4.38-4.37Z"/><path class="cls-11" d="M111.59,108.25a6,6,0,1,1-8.52-8.52Z"/></g></g></svg>