<!-- IBM_SOURCE_PROLOG_BEGIN_TAG                                            -->
<!-- *****************************************************************      -->
<!--                                                                        -->
<!-- IBM Confidential                                                       -->
<!-- OCO Source Materials                                                   -->
<!--                                                                        -->
<!-- (C) Copyright IBM Corp. 2018                                           -->
<!--                                                                        -->
<!-- The source code for this program is not published or otherwise         -->
<!-- divested of its trade secrets, irrespective of what has been           -->
<!-- deposited with the U.S. Copyright Office.                              -->
<!--                                                                        -->
<!-- *****************************************************************      -->
<!-- IBM_SOURCE_PROLOG_END_TAG                                              -->
<svg xmlns="http://www.w3.org/2000/svg" xmlns:xlink="http://www.w3.org/1999/xlink" viewBox="0 0 216 216"><defs><style>.cls-1{isolation:isolate;}.cls-2{fill:#ffead9;}.cls-3{fill:#3c6df0;}.cls-4{fill:#ff9efd;}.cls-5{fill:#00adee;}.cls-19,.cls-6{fill:none;}.cls-6{opacity:0.5;}.cls-7{fill:#535a5a;}.cls-8{fill:#252e6a;}.cls-9{fill:#272727;}.cls-10{fill:url(#New_Gradient_Swatch);}.cls-11{fill:#d1d7f4;opacity:0.6;mix-blend-mode:overlay;}.cls-12,.cls-14{fill:#231f20;}.cls-13{fill:url(#New_Gradient_Swatch-2);}.cls-14{font-size:12px;font-family:IBMPlexSans-Bold, IBM Plex Sans;font-weight:700;}.cls-15{letter-spacing:-0.01em;}.cls-16{letter-spacing:-0.01em;}.cls-17{letter-spacing:0em;}.cls-18{letter-spacing:-0.01em;}.cls-19{stroke:#ff9efd;stroke-miterlimit:10;}</style><linearGradient id="New_Gradient_Swatch" x1="87.05" y1="115.5" x2="111.32" y2="115.5" gradientUnits="userSpaceOnUse"><stop offset="0" stop-color="#3c6df0"/><stop offset="1"/></linearGradient><linearGradient id="New_Gradient_Swatch-2" x1="114.16" y1="109.69" x2="109.64" y2="129.72" xlink:href="#New_Gradient_Swatch"/></defs><title>DashboardIllustration</title><g class="cls-1"><g id="Layer_1" data-name="Layer 1"><path class="cls-2" d="M155,106.7a47.82,47.82,0,0,1-14.87,34.71,47.08,47.08,0,0,1-8.59,6.52c-1.2.72-2.44,1.39-3.71,2a46.61,46.61,0,0,1-6.77,2.65c-.39.13-.78.24-1.18.35a47.83,47.83,0,0,1-11.31,1.71c-.51,0-1,0-1.54,0a45.41,45.41,0,0,1-4.83-.25q-1.78-.16-3.54-.48a47.81,47.81,0,0,1-14.48-5.05l0,0c-.38-.21-.76-.42-1.13-.64A48.06,48.06,0,0,1,69,136c-.41-.52-.8-1.06-1.18-1.6a48,48,0,0,1,4.46-60.72A47.12,47.12,0,0,1,78.66,68,47.69,47.69,0,0,1,102.19,59a48.21,48.21,0,0,1,4.83-.24c.52,0,1,0,1.54,0A48,48,0,0,1,155,106.7Z"/><path class="cls-3" d="M102.19,144.4V27.47A3.35,3.35,0,0,1,105.38,24a3.06,3.06,0,0,1,2.25,1,3.63,3.63,0,0,1,.93,2.44V144.64Z"/><path class="cls-4" d="M121.05,137v15.6c-.39.13-.78.24-1.18.35V137a.6.6,0,0,1,.59-.59A.59.59,0,0,1,121.05,137Z"/><rect class="cls-4" x="109.66" y="65.57" width="31.39" height="1.18" rx="0.59" ry="0.59" transform="translate(191.51 -59.19) rotate(90)"/><path class="cls-5" d="M78.66,58.13v85.78a3.76,3.76,0,0,1-.23,1.31,49.65,49.65,0,0,1-6.14-6.08v-81a3.41,3.41,0,0,1,3.19-3.57,3,3,0,0,1,2.25,1A3.8,3.8,0,0,1,78.66,58.13Z"/><path class="cls-5" d="M77.74,60.63l-13.4,15a3,3,0,0,1-4.51,0h0a3.89,3.89,0,0,1,0-5l13.4-15a3,3,0,0,1,4.51,0h0A3.89,3.89,0,0,1,77.74,60.63Z"/><path class="cls-5" d="M77.73,55.6l13.4,15a3.89,3.89,0,0,1,0,5h0a3,3,0,0,1-4.51,0l-13.4-15a3.89,3.89,0,0,1,0-5h0A3,3,0,0,1,77.73,55.6Z"/><path class="cls-3" d="M107.63,29.91,94.24,44.47a3,3,0,0,1-4.51,0h0a3.69,3.69,0,0,1,0-4.9L103.13,25a3,3,0,0,1,4.5,0h0A3.68,3.68,0,0,1,107.63,29.91Z"/><path class="cls-3" d="M107.63,25,121,39.57a3.69,3.69,0,0,1,0,4.9h0a3,3,0,0,1-4.5,0l-13.4-14.56a3.68,3.68,0,0,1,0-4.89h0A3,3,0,0,1,107.63,25Z"/><path class="cls-4" d="M145.56,69.71l-13.4,15.46a2.9,2.9,0,0,1-4.5,0h0a4.1,4.1,0,0,1,0-5.2l13.39-15.45a2.91,2.91,0,0,1,4.51,0h0A4.09,4.09,0,0,1,145.56,69.71Z"/><path class="cls-4" d="M145.55,64.52,159,80a4.13,4.13,0,0,1,0,5.2h0a2.91,2.91,0,0,1-4.51,0L141.05,69.71a4.09,4.09,0,0,1,0-5.19h0A2.9,2.9,0,0,1,145.55,64.52Z"/><path class="cls-6" d="M146.49,134v17.6a3.19,3.19,0,1,1-6.37,0V141.41A47.68,47.68,0,0,0,146.49,134Z"/><path class="cls-4" d="M146.49,67.13V134a47.68,47.68,0,0,1-6.37,7.44V67.13a3.47,3.47,0,0,1,3.18-3.69,3,3,0,0,1,2.25,1.09A3.94,3.94,0,0,1,146.49,67.13Z"/><path class="cls-4" d="M84.17,127.93v21l0,0c-.38-.21-.76-.42-1.13-.64V127.93a.59.59,0,0,1,.59-.59A.6.6,0,0,1,84.17,127.93Z"/><path class="cls-4" d="M69,136V113.12a.6.6,0,0,0-.59-.59.59.59,0,0,0-.59.59v21.23Z"/><rect class="cls-4" x="71.36" y="84.13" width="31.39" height="1.18" rx="0.59" ry="0.59" transform="translate(171.77 -2.34) rotate(90)"/><rect class="cls-4" x="86.42" y="64.66" width="21.39" height="1.18" rx="0.59" ry="0.59" transform="translate(162.37 -31.86) rotate(90)"/><rect class="cls-7" x="73.45" y="90.04" width="49.94" height="60.85" transform="translate(-41.73 52.96) rotate(-25.03)"/><rect class="cls-5" x="74.45" y="95.11" width="41.81" height="38.2" transform="translate(-39.37 51.08) rotate(-25.03)"/><polygon class="cls-8" points="108.02 129.36 93.61 136.09 94.99 120.25 96.37 104.4 109.4 113.52 122.44 122.63 108.02 129.36"/><polygon class="cls-3" points="95.5 135.21 84.46 140.37 85.51 128.23 86.57 116.09 96.55 123.07 106.54 130.06 95.5 135.21"/><circle class="cls-2" cx="102.11" cy="97.63" r="3.27"/><rect class="cls-9" x="81.96" y="82.14" width="49.94" height="60.85" transform="translate(-9.88 10.29) rotate(-5.27)"/><rect class="cls-5" x="85.26" y="86.54" width="41.81" height="38.2" transform="translate(-9.25 10.19) rotate(-5.27)"/><polygon class="cls-8" points="112.95 124.18 97.12 125.64 103.77 111.19 110.43 96.75 119.61 109.73 128.79 122.72 112.95 124.18"/><polygon class="cls-10" points="99.19 125.45 87.05 126.57 92.15 115.5 97.25 104.43 104.29 114.38 111.32 124.33 99.19 125.45"/><circle class="cls-2" cx="118.12" cy="92.32" r="3.27"/><polygon class="cls-11" points="134.69 140.6 85.03 145.3 79.36 84.72 134.69 140.6"/><rect class="cls-12" x="98.01" y="78.57" width="49.94" height="60.85" transform="translate(22.33 -20.9) rotate(10.68)"/><rect class="cls-5" x="103.24" y="83.03" width="41.81" height="38.2" transform="translate(21.08 -21.24) rotate(10.68)"/><polygon class="cls-8" points="125.59 121.82 109.96 118.88 120.32 106.81 130.69 94.75 135.95 109.76 141.22 124.77 125.59 121.82"/><polygon class="cls-13" points="112 119.26 100.03 117 107.97 107.76 115.91 98.52 119.94 110.02 123.97 121.52 112 119.26"/><circle class="cls-2" cx="139.3" cy="92.61" r="3.27"/><text class="cls-14" transform="translate(64.85 190.02)">C<tspan class="cls-15" x="7.81" y="0">r</tspan><tspan x="12.6" y="0">e</tspan><tspan class="cls-16" x="19.34" y="0">a</tspan><tspan class="cls-17" x="26.1" y="0">t</tspan><tspan x="30.65" y="0">e D</tspan><tspan class="cls-18" x="48.59" y="0">a</tspan><tspan x="55.34" y="0">taset</tspan></text><polygon class="cls-11" points="141.82 143.51 92.81 134.27 104.14 74.48 141.82 143.51"/><circle class="cls-19" cx="66.26" cy="85.18" r="2.15"/><circle class="cls-19" cx="159.88" cy="94.32" r="2.15"/><circle class="cls-19" cx="129.48" cy="54.56" r="2.15"/></g></g></svg>