<!-- IBM_SOURCE_PROLOG_BEGIN_TAG                                            -->
<!-- *****************************************************************      -->
<!--                                                                        -->
<!-- IBM Confidential                                                       -->
<!-- OCO Source Materials                                                   -->
<!--                                                                        -->
<!-- (C) Copyright IBM Corp. 2019                                           -->
<!--                                                                        -->
<!-- The source code for this program is not published or otherwise         -->
<!-- divested of its trade secrets, irrespective of what has been           -->
<!-- deposited with the U.S. Copyright Office.                              -->
<!--                                                                        -->
<!-- *****************************************************************      -->
<!-- IBM_SOURCE_PROLOG_END_TAG                                              -->
<?xml version="1.0" encoding="UTF-8"?>
<svg width="40px" height="40px" viewBox="0 0 40 40" version="1.1" xmlns="http://www.w3.org/2000/svg" xmlns:xlink="http://www.w3.org/1999/xlink">
    <!-- Generator: Sketch 54.1 (76490) - https://sketchapp.com -->
    <title>Calendar</title>
    <desc>Created with Sketch.</desc>
    <g id="Calendar" stroke="none" stroke-width="1" fill="none" fill-rule="evenodd">
        <rect id="Container" x="0" y="0" width="40" height="40"></rect>
        <path d="M13.5,8 L26.5,8 L26.5,5.5 L28,5.5 L28,8 L36,8 C36.8284271,8 37.5,8.67157288 37.5,9.5 L37.5,32.5 C37.5,33.3284271 36.8284271,34 36,34 L4,34 C3.17157288,34 2.5,33.3284271 2.5,32.5 L2.5,9.5 C2.5,8.67157288 3.17157288,8 4,8 L12,8 L12,5.5 L13.5,5.5 L13.5,8 Z M13.5,9.5 L13.5,11.5 L12,11.5 L12,9.5 L4,9.5 L4,32.5 L36,32.5 L36,9.5 L28,9.5 L28,11.5 L26.5,11.5 L26.5,9.5 L13.5,9.5 Z M4,13.5 L36,13.5 L36,15 L4,15 L4,13.5 Z" id="Shape" fill="#FFF" fill-rule="nonzero"></path>
    </g>
</svg>
